<svg id="Icons" height="512" viewBox="0 0 74 74" width="512" xmlns="http://www.w3.org/2000/svg"><path d="m58.821 47.642h-43.642a2.017 2.017 0 0 1 -2.015-2.015v-4.06a2.017 2.017 0 0 1 2.015-2.015h43.642a2.017 2.017 0 0 1 2.015 2.015v4.06a2.017 2.017 0 0 1 -2.015 2.015zm-43.642-6.09-.015.015v4.06l43.657.015.015-4.075z"/><path d="m55.27 72h-6.09a1 1 0 0 1 -1-1v-24.36a1 1 0 0 1 1-1h6.09a1 1 0 0 1 1 1v4.73a1 1 0 0 1 -2 0v-3.73h-4.09v22.36h4.09v-3.73a1 1 0 0 1 2 0v4.73a1 1 0 0 1 -1 1z"/><path d="m55.27 61.27a1 1 0 0 1 -1-1v-2.9a1 1 0 0 1 2 0v2.9a1 1 0 0 1 -1 1z"/><path d="m24.821 72h-6.09a1 1 0 0 1 -1-1v-24.358a1 1 0 0 1 1-1h6.09a1 1 0 0 1 1 1v24.358a1 1 0 0 1 -1 1zm-5.09-2h4.09v-22.358h-4.09z"/><path d="m52.244 10.089a1 1 0 0 1 -1-1v-5.074l-3.76-.015-.015 5.089a1 1 0 0 1 -2 0v-5.074a2.017 2.017 0 0 1 2.015-2.015h3.745a2.017 2.017 0 0 1 2.015 2.015v5.074a1 1 0 0 1 -1 1z"/><path d="m52.244 41.552h-5.775a1 1 0 0 1 -1-1v-15.224a1 1 0 1 1 2 0v14.224h3.775v-14.224a1 1 0 0 1 2 0v15.224a1 1 0 0 1 -1 1z"/><path d="m27.531 10.089a1 1 0 0 1 -1-1v-5.074l-3.76-.015-.015 5.089a1 1 0 0 1 -2 0v-5.074a2.017 2.017 0 0 1 2.015-2.015h3.745a2.017 2.017 0 0 1 2.015 2.015v5.074a1 1 0 0 1 -1 1z"/><path d="m27.531 41.552h-5.775a1 1 0 0 1 -1-1v-15.224a1 1 0 0 1 2 0v14.224h3.775v-14.224a1 1 0 1 1 2 0v15.224a1 1 0 0 1 -1 1z"/><path d="m54.761 26.328h-35.522a2.017 2.017 0 0 1 -2.015-2.015v-14.213a2.017 2.017 0 0 1 2.015-2.015h35.522a2.017 2.017 0 0 1 2.015 2.015v14.213a2.017 2.017 0 0 1 -2.015 2.015zm-35.522-16.239-.015.015v14.209l35.537.015.015-14.228z"/><path d="m49.179 59.821h-24.358a1 1 0 1 1 0-2h24.358a1 1 0 0 1 0 2z"/></svg>