<svg id="Icons" height="512" viewBox="0 0 74 74" width="512" xmlns="http://www.w3.org/2000/svg"><path d="m66.61 45.44a1 1 0 0 1 -1-1v-2.97a1 1 0 0 1 2 0v2.97a1 1 0 0 1 -1 1z"/><path d="m64.61 62.03h-55.22a3 3 0 0 1 -3-3v-46.68a1 1 0 0 1 1-1h59.22a1 1 0 0 1 1 1v12.21a1 1 0 1 1 -2 0v-11.21h-57.22v45.68a.99.99 0 0 0 1 1h55.22a.99.99 0 0 0 1-1v-7.59a1 1 0 0 1 2 0v7.59a3 3 0 0 1 -3 3z"/><path d="m66.61 35.47a1 1 0 0 1 -1-1v-2.91a1 1 0 0 1 2 0v2.91a1 1 0 0 1 -1 1z"/><path d="m69.9 13.351h-65.8a2.1 2.1 0 0 1 -2.1-2.1v-4.864a2.1 2.1 0 0 1 2.1-2.1h65.8a2.1 2.1 0 0 1 2.1 2.1v4.867a2.1 2.1 0 0 1 -2.1 2.097zm-65.8-7.06a.1.1 0 0 0 -.1.1v4.867a.1.1 0 0 0 .1.1h65.8a.1.1 0 0 0 .1-.1v-4.871a.1.1 0 0 0 -.1-.1z"/><path d="m61.129 69.709h-5.484a1 1 0 0 1 -.947-.678l-2.6-7.677a1 1 0 0 1 .947-1.322h8.088a1 1 0 0 1 1 1v7.677a1 1 0 0 1 -1.004 1zm-4.767-2h3.767v-5.677h-5.693z"/><path d="m18.355 69.709h-5.484a1 1 0 0 1 -1-1v-7.677a1 1 0 0 1 1-1h8.088a1 1 0 0 1 .947 1.322l-2.6 7.677a1 1 0 0 1 -.951.678zm-4.484-2h3.767l1.926-5.677h-5.693z"/><path d="m60 34.357h-46a1 1 0 0 1 -1-1v-14a1 1 0 0 1 1-1h46a1 1 0 0 1 1 1v14a1 1 0 0 1 -1 1zm-45-2h44v-12h-44z"/><path d="m60 55.025h-46a1 1 0 0 1 -1-1v-14a1 1 0 0 1 1-1h46a1 1 0 0 1 1 1v14a1 1 0 0 1 -1 1zm-45-2h44v-12h-44z"/><path d="m44.562 27.357h-15.124a1 1 0 0 1 0-2h15.124a1 1 0 0 1 0 2z"/><path d="m44.562 29.357a1 1 0 0 1 -1-1v-4a1 1 0 0 1 2 0v4a1 1 0 0 1 -1 1z"/><path d="m29.438 29.357a1 1 0 0 1 -1-1v-4a1 1 0 0 1 2 0v4a1 1 0 0 1 -1 1z"/><path d="m44.562 48.025h-15.124a1 1 0 1 1 0-2h15.124a1 1 0 0 1 0 2z"/><path d="m44.562 50.025a1 1 0 0 1 -1-1v-4a1 1 0 1 1 2 0v4a1 1 0 0 1 -1 1z"/><path d="m29.438 50.025a1 1 0 0 1 -1-1v-4a1 1 0 0 1 2 0v4a1 1 0 0 1 -1 1z"/></svg>