<svg id="Icons" height="512" viewBox="0 0 74 74" width="512" xmlns="http://www.w3.org/2000/svg"><path d="m57.914 72h-41.828a1 1 0 0 1 -1-1 7.806 7.806 0 0 1 7.8-7.8h28.231a7.806 7.806 0 0 1 7.8 7.8 1 1 0 0 1 -1.003 1zm-40.741-2h39.654a5.806 5.806 0 0 0 -5.71-4.8h-28.234a5.806 5.806 0 0 0 -5.71 4.8z"/><path d="m27.615 65.2a1 1 0 0 1 -.862-.49c-.577-.975-1.437-2.508-2.252-4.274a25.519 25.519 0 0 1 -2.3-10.815 26.576 26.576 0 0 1 .932-6.98l2.331-8.541a1 1 0 1 1 1.93.526l-2.329 8.542a24.585 24.585 0 0 0 -.861 6.454 23.55 23.55 0 0 0 2.112 9.978c.781 1.69 1.6 3.159 2.158 4.093a1 1 0 0 1 -.859 1.51z"/><path d="m46.385 65.2a1 1 0 0 1 -.859-1.51 46.174 46.174 0 0 0 2.157-4.09 23.543 23.543 0 0 0 2.117-9.979 24.585 24.585 0 0 0 -.861-6.454l-2.329-8.542a1 1 0 1 1 1.93-.526l2.328 8.542a26.576 26.576 0 0 1 .932 6.98 25.52 25.52 0 0 1 -2.3 10.817c-.814 1.764-1.674 3.3-2.251 4.272a1 1 0 0 1 -.864.49z"/><path d="m57.89 35.36h-41.78a1 1 0 0 1 -.962-1.276l8.98-31.359a1 1 0 0 1 .962-.725h23.82a1 1 0 0 1 .962.725l2.149 7.52a1 1 0 1 1 -1.922.55l-1.943-6.795h-22.312l-8.407 29.36h39.126l-1.605-5.6a1 1 0 0 1 1.923-.55l1.971 6.879a1 1 0 0 1 -.962 1.276z"/><path d="m53.919 21.48a1 1 0 0 1 -.96-.724l-.85-2.96a1 1 0 1 1 1.922-.552l.85 2.96a1 1 0 0 1 -.685 1.237.98.98 0 0 1 -.277.039z"/></svg>