<svg id="Icons" height="512" viewBox="0 0 74 74" width="512" xmlns="http://www.w3.org/2000/svg"><path d="m54.319 17.13a1 1 0 0 1 -.964-.739 16.066 16.066 0 0 0 -1.017-2.72 1 1 0 0 1 1.8-.862 18.044 18.044 0 0 1 1.142 3.06 1 1 0 0 1 -.7 1.226.983.983 0 0 1 -.261.035z"/><path d="m55 42h-36a1 1 0 0 1 -1-1v-20a18.993 18.993 0 0 1 19-19 18.742 18.742 0 0 1 4.385.518 1 1 0 1 1 -.469 1.944 16.99 16.99 0 0 0 -20.916 16.538v19h34v-17.72a1 1 0 0 1 2 0v18.72a1 1 0 0 1 -1 1z"/><path d="m49.04 8.63a1 1 0 0 1 -.677-.264 14.9 14.9 0 0 0 -2.263-1.715 1 1 0 1 1 1.049-1.7 16.959 16.959 0 0 1 2.572 1.945 1 1 0 0 1 -.681 1.734z"/><path d="m64.75 47.5h-55.5a3.75 3.75 0 0 1 0-7.5h55.5a3.75 3.75 0 0 1 0 7.5zm-55.5-5.5a1.75 1.75 0 0 0 0 3.5h55.5a1.75 1.75 0 0 0 0-3.5z"/><path d="m64 59.75h-21a1 1 0 0 1 -1-1v-12.25a1 1 0 0 1 1-1h21a1 1 0 0 1 1 1v12.25a1 1 0 0 1 -1 1zm-20-2h19v-10.25h-19z"/><path d="m64 72h-21a1 1 0 0 1 -1-1v-12.25a1 1 0 0 1 1-1h21a1 1 0 0 1 1 1v12.25a1 1 0 0 1 -1 1zm-20-2h19v-10.25h-19z"/><path d="m55 53.625h-3a1 1 0 0 1 0-2h3a1 1 0 0 1 0 2z"/><path d="m55 65.875h-3a1 1 0 0 1 0-2h3a1 1 0 0 1 0 2z"/><path d="m31 59.75h-21a1 1 0 0 1 -1-1v-12.25a1 1 0 0 1 1-1h21a1 1 0 0 1 1 1v12.25a1 1 0 0 1 -1 1zm-20-2h19v-10.25h-19z"/><path d="m31 72h-21a1 1 0 0 1 -1-1v-12.25a1 1 0 0 1 1-1h21a1 1 0 0 1 1 1v12.25a1 1 0 0 1 -1 1zm-20-2h19v-10.25h-19z"/><path d="m22 53.625h-3a1 1 0 0 1 0-2h3a1 1 0 0 1 0 2z"/><path d="m22 65.875h-3a1 1 0 0 1 0-2h3a1 1 0 0 1 0 2z"/><path d="m26.241 24.776a1 1 0 0 1 -.606-1.8l15.519-11.8a1 1 0 1 1 1.211 1.592l-15.519 11.804a.994.994 0 0 1 -.605.204z"/><path d="m26.253 18.186a1 1 0 0 1 -.607-1.8l9.154-6.958a1 1 0 0 1 1.211 1.592l-9.154 6.961a.99.99 0 0 1 -.604.205z"/></svg>