<?xml version="1.0" encoding="UTF-8"?>
<svg xmlns="http://www.w3.org/2000/svg" id="Icons" viewBox="0 0 74 74" width="512" height="512"><path d="M67.683,63.171H6.317A4.322,4.322,0,0,1,2,58.854V30a2,2,0,0,1,2-2h9.61a2,2,0,0,1,2,2V48.9a.659.659,0,0,0,.658.659H57.732a.659.659,0,0,0,.658-.659V30a2,2,0,0,1,2-2H70a2,2,0,0,1,2,2V58.854A4.322,4.322,0,0,1,67.683,63.171ZM4,30V58.854a2.32,2.32,0,0,0,2.317,2.317H67.683A2.32,2.32,0,0,0,70,58.854V30H60.39V48.9a2.661,2.661,0,0,1-2.658,2.659H16.268A2.661,2.661,0,0,1,13.61,48.9V30Z"/><path d="M65.06,30a1,1,0,0,1-1-1V10.78a4,4,0,0,0-4-4H45.87a1,1,0,0,1,0-2H60.06a6.006,6.006,0,0,1,6,6V29A1,1,0,0,1,65.06,30Z"/><path d="M28.91,6.78H26a1,1,0,0,1,0-2h2.91a1,1,0,0,1,0,2Z"/><path d="M8.94,30a1,1,0,0,1-1-1V10.78a6.006,6.006,0,0,1,6-6H19a1,1,0,0,1,0,2H13.94a4,4,0,0,0-4,4V29A1,1,0,0,1,8.94,30Z"/><path d="M38.87,6.78H35.91a1,1,0,0,1,0-2h2.96a1,1,0,0,1,0,2Z"/><path d="M59.39,41.61H14.61a1,1,0,0,1,0-2H59.39a1,1,0,0,1,0,2Z"/><path d="M62.878,69.22H51.683a1,1,0,0,1-1-1V62.171a1,1,0,0,1,1-1h11.2a1,1,0,0,1,1,1V68.22A1,1,0,0,1,62.878,69.22Zm-10.195-2h9.2V63.171H52.683Z"/><path d="M22.317,69.22H11.122a1,1,0,0,1-1-1V62.171a1,1,0,0,1,1-1h11.2a1,1,0,0,1,1,1V68.22A1,1,0,0,1,22.317,69.22Zm-10.195-2h9.2V63.171H12.122Z"/></svg>
